<svg width="32" height="32" fill="none" xmlns="http://www.w3.org/2000/svg"><path d="m2 2 14 3 14-3v28l-14-3-14 3V2Z" fill="#D3883E"/><path d="M30 2H2l14 14L30 2Z" fill="#F3AD61"/><path d="M30 30H2l14-14 14 14Z" fill="#B97028"/><path d="M5 5h22v4.164L18 22 5 19v-3l1.5-3L5 10V5Z" fill="#AEDDFF"/><path d="M24.667 10.114A2.994 2.994 0 0 1 27 9v6a2.99 2.99 0 0 1-2.009-.772 3 3 0 1 1-2.73-3.217 2 2 0 0 1 2.406-.897ZM5 16v-6c.981 0 1.853.471 2.4 1.2A1 1 0 0 1 9 12a2 2 0 1 1 0 4H5Z" fill="#fff"/><path d="M8 17.5 5 19v8h22V12c-1.5 0-2.5.5-4 2l-4.5 4.5c-1 1-1.5 1.5-2.5 1l-4-2c-1.6-.8-3.167-.5-4 0Z" fill="#14A085"/><path d="M27 26.811V27H5v-.189c2.564-2.579 6.538-4.311 11-4.311s8.436 1.732 11 4.311Z" fill="#96C34A"/><path d="M19.056 10.185a.75.75 0 0 0 0-1.37.75.75 0 0 0-.685-1.186.75.75 0 0 0-1.186-.685.75.75 0 0 0-1.37 0 .75.75 0 0 0-1.186.685.75.75 0 0 0-.685 1.186.75.75 0 0 0 0 1.37.75.75 0 0 0 .685 1.186.75.75 0 0 0 1.186.685.75.75 0 0 0 1.37 0 .75.75 0 0 0 1.186-.685.75.75 0 0 0 .685-1.186Z" fill="#FF822D"/><path d="M18.705 9.5a2.205 2.205 0 1 1-4.41 0 2.205 2.205 0 0 1 4.41 0Z" fill="#F9C23C"/></svg>